<?xml version="1.0" encoding="utf-8"?>
<!-- Generator: Adobe Illustrator 18.1.1, SVG Export Plug-In . SVG Version: 6.00 Build 0)  -->
<svg version="1.1" id="Слой_1" xmlns="http://www.w3.org/2000/svg" xmlns:xlink="http://www.w3.org/1999/xlink" x="0px" y="0px"
	 viewBox="0 0 1451.3 1451.3" enable-background="new 0 0 1451.3 1451.3" xml:space="preserve">
<path d="M132.7,1423.4c-3.3,1.1,26.9,9.7,32.2,11.6C159.3,1429.9,124.9,1421,132.7,1423.4z"/>
<path d="M77.9,1365.8l11.7,5.2c0,0-1.7-1-4.3-2.6c-2.5-1.6-5.9-3.6-9.3-5.7c-6.7-4.2-13.4-8.4-13.4-8.4s3.8,2.9,7.6,5.8
	C74.1,1362.9,77.9,1365.8,77.9,1365.8z"/>
<path d="M93.1,1332.8c-25-9.5-24.5-5.4-20.2,0.6c2.1,3,5.2,6.5,6.6,9.1c1.4,2.7,1,4.5-4.1,4.1l-11.6-3.7c0,0,9.6,4.8,19.2,9.6
	c9.6,4.7,19.3,9.5,19.3,9.5c-0.8-2.4-2.9-5.4-5.2-8.7c-1.2-1.7-2.4-3.3-3.6-5c-1.1-1.7-2.2-3.3-3.2-4.9
	C86.6,1337.2,85.2,1332.2,93.1,1332.8z"/>
<path d="M205,1366.6c-19-8.4-14.4-11-7.5,0.4c2.2,0.7,3.4,1.2,5,1.7C202.5,1368.1,202.9,1367.3,205,1366.6z"/>
<path d="M198.6,1350.5c0,0,3.6,3.1,7.2,6.1c3.6,3,7.2,6,7.2,6c11.3,4.9,15.5,3.1,22.7,8.4C228.7,1362.9,217.6,1357.7,198.6,1350.5z"
	/>
<path d="M166.3,1328.7l5.8,5.7C176.9,1336.4,178.7,1336.8,166.3,1328.7z"/>
<path d="M184.4,1346.3c0,0-3.1-3-6.2-5.9c-3.1-3-6.1-6-6.1-6c-7.9-3.5-23.2-11.4,4.2,4.7C162.5,1331.4,175.5,1339.4,184.4,1346.3z"
	/>
<path d="M175.9,1344.9c-11.4-3.1-19.5-3.3-33.8-15.8c1.2,5.7,10.4,12.3,18.9,16.2C169.5,1349.1,177.3,1350.4,175.9,1344.9z"/>
<path d="M43.8,1308c0,0-4-0.7-8-1.4c-4-0.7-8-1.3-8-1.3s3.7,2.7,7.4,5.3c3.7,2.6,7.4,5.3,7.4,5.3c-3.7-2.6,0.5-3,3.6-3.4
	C49.4,1312,51.5,1311.4,43.8,1308z"/>
<path d="M235.5,1342c-9.6-6-26.7-14.2-39.3-21.3c0,0,2.4,2.3,4.8,4.7c2.4,2.3,4.8,4.6,4.8,4.6C213.3,1332.5,221,1333.5,235.5,1342z"
	/>
<path d="M196.2,1320.7c0,0-3.6-3.5-7.1-7c-3.5-3.6-7.1-7.1-7.1-7.1C177.8,1309.2,185.3,1314.6,196.2,1320.7z"/>
<path d="M114.7,1300c0,0,7.9,6.8,15.8,13.5c8,6.7,16,13.3,16,13.3s-8-7-15.8-14.1c-7.9-7.1-15.6-14.5-15.6-14.5L114.7,1300z"/>
<path d="M245.8,1328.6c0,0,5.2,4.1,10.4,8.1c5.2,4,10.4,8,10.4,8s-7.8-6.2-15.5-12.5c-7.7-6.3-15.4-12.6-15.4-12.6L245.8,1328.6z"/>
<path d="M248.3,1316.9c8.4,6.8,16.4,11.4,23.5,15.5c7.1,4.1,13.2,7.6,18.3,12.1c-1.6-4.4-15.6-16.9-28-28.4
	C268.3,1323.4,265,1324,248.3,1316.9z"/>
<path d="M244.6,1298.8c3.5,4.1,10.2,10.4,17.5,17.3C258.7,1312.1,253.7,1307,244.6,1298.8z"/>
<path d="M191.4,1302.3c6,3.3,21.6,12.2,29.4,14.1l-27.9-15.4C192.4,1301.4,191.9,1301.9,191.4,1302.3z"/>
<path d="M192,1300.5l0.9,0.5c1.7-1.4,3.1-2.2,3.8-2.6C196.2,1298.7,194.8,1299.4,192,1300.5z"/>
<path d="M191,1302.7c0.2-0.1,0.3-0.2,0.4-0.3C188.7,1300.8,187.7,1300.4,191,1302.7z"/>
<path d="M147,1301.6c-6.9-5.7-13.7-12.4-22-18.8c-8.3-6.3-18.2-12.3-31.8-16.1c8.8,6.5,17.1,10.8,25.7,15.8
	C127.6,1287.4,136.6,1293,147,1301.6z"/>
<path d="M155.8,1283.8c0,0-2.3,0.2-4.7,0.5c-2.4,0.2-4.6,0.5-4.6,0.5c7.3,4.2,18.3,9.7,25.1,15.6c0,0-1-1-2.5-2.6
	c-1.5-1.5-3.5-3.6-5.4-5.7C159.7,1288,155.8,1283.8,155.8,1283.8z"/>
<polygon points="148.8,1276.1 155.8,1283.8 159.3,1283.5 "/>
<path d="M215.2,1288.6c-5.1-4.8-7.5-8-8.6-10.3c-0.6-1.2-0.9-2.2-1-3.1c-0.1-0.9-0.1-1.7-0.1-2.6c-1.7-0.3-3.3-0.5-4.8-0.6
	c-1.4-0.1-2.7,0-3.8,0.2c-2.2,0.3-3.8,1.2-4.6,2.4C200.3,1280.6,214.3,1291.8,215.2,1288.6z"/>
<path d="M201.5,1292.6c-0.5-0.5-0.7-0.9-1.2-1.4C197.9,1290,197,1289.7,201.5,1292.6z"/>
<path d="M222.9,1250.8c-1.7-1.1-3.1-2.1-4.8-3.2c1.4,1.2,2.5,2.1,4.2,3.5L222.9,1250.8z"/>
<path d="M187.1,1271.7c-6.4-1.5-0.8,4,6.6,10.5c-1.7-3.2-2.3-5.9-1.4-7.6C188.7,1271.9,186.2,1270.2,187.1,1271.7z"/>
<path d="M237,1284.3c-6-3.1-11.3-5.4-16.4-7.3C229.4,1282,243.4,1289.5,237,1284.3z"/>
<path d="M208.1,1295.4c0.4,0.4,0.8,0.8,1,1.1C215.2,1299.7,212.3,1297.9,208.1,1295.4z"/>
<path d="M208.1,1295.4c-3.2-3.5-9.2-8.6-14.4-13.2c1.3,2.5,3.4,5.5,6.6,9C202.3,1292.2,205.4,1293.9,208.1,1295.4z"/>
<path d="M70.5,1115c11.2,9.5,20.8,20.2,24,26.5c3.3,6.3,0.2,8.4-14.5,1.3c6.5,9.5,29.7,28,57,48c27.2,20,58.4,41.6,81,56.7
	c-9.9-8.1-19.4-15.4-29.3-30.7c-6.9-4.3-16.2-7.7-26.2-12.4c-9.9-4.8-20.5-10.9-29.3-21.2c-6.5-16,12.5,1.1,27.1,7.9
	c-15.3-10.3-24.1-20.7-34-32.8c-10-12.1-21.3-25.9-42.6-42.5c0,0,2.3,4.6,4.6,9.2c2.3,4.5,4.6,9.1,4.6,9.1
	C86.3,1128.9,78,1118.1,70.5,1115z"/>
<path d="M209.3,1253.5c0,0,0.4,1,0.8,2c0.4,1,0.8,2,0.8,2c2.8,0.5,6.8,2.3,12.7,5.3c5.9,3.1,13.5,7.4,23.6,13.3
	c-9.2-11.4-17.3-18.8-24.8-25.1l-10,5.7L209.3,1253.5z"/>
<path d="M205,1265.3c-12.5-10.1-20.6-18.3-29.3-26.2c-8.7-7.9-18.1-15.6-33.1-24.5c-2.7,7.1,18.5,19.9,27.3,31.2
	c0.1-6.7,3.3-3.5,8.8,2c5.5,5.5,13.6,13,23.3,15.4c3.2,4.8,3.4,7.2,3.5,9.4c4.3,0.8,9.3,2.2,15.1,4.4c-0.7-0.4-1.2-0.7-1.8-1
	l0.1,0.1l-0.4-0.3c-3.5-2-5.6-3.3-3.4-2.3c-0.3-0.3-0.3-0.4-0.4-0.6c-3.6-2.7-6.6-5.1-9.5-7.5c7.1,1.5,7,4.5,9.5,7.5
	c1.2,0.9,2.4,1.9,3.8,2.9c0.2,0.1,0.2,0.2,0.3,0.2c0,0-2-4.6-4-9.2c-2-4.7-3.9-9.3-3.9-9.3C206,1256.5,205,1259.3,205,1265.3z"/>
<path d="M37.1,1226.1c2.7,1.1,4.6,2.3,6.6,3.4C40.8,1226.8,38.6,1225.1,37.1,1226.1z"/>
<path d="M56.5,1231.4c3.3,3.1,14,10.4,9.6,11.3c-9.7-2.7-13.2-7.8-22.4-13.1c3.2,3,7.3,7.3,12.7,11.2c5.4,3.9,12.1,7.5,20.2,9
	l-3.3-3c6.1,0.6,18.5,4.8,29.8,9.2c11.3,4.5,21.5,9.3,23.2,10.7c-12.7-7-23.6-12.9-34.6-18.6c-5.5-2.8-11-5.6-16.8-8.4
	C69.1,1237.1,63.1,1234.3,56.5,1231.4z"/>
<path d="M125.4,1240.7c0,0-1.8-4.2-3.7-8.4c-1.8-4.3-3.6-8.5-3.6-8.5s-6.5-2.9-13-5.7c-6.5-2.8-13-5.6-13-5.6l14,9.1
	C97.3,1222.6,115.1,1233,125.4,1240.7z"/>
<path d="M236,1260l25.8,21.9c0,0-8.7-8.3-17.2-16.7c-8.6-8.4-17.1-16.8-17.1-16.8s2.1,2.9,4.2,5.8C233.8,1257.1,236,1260,236,1260z"
	/>
<path d="M239.8,1249.1l22.4,19.1c0,0-3-3.3-5.9-6.7c-2.9-3.4-5.9-6.7-5.9-6.7L239.8,1249.1z"/>
<path d="M314.3,1163.6c5.3,3.9,9.3,6.4,12.3,8c3,1.6,5.2,2.1,6.7,2c-3.7-3-7.7-6.5-11.4-9.6c-3.7-3.2-7-6.1-9.5-7.9
	C307.5,1152.3,306.4,1152.8,314.3,1163.6z"/>
<path d="M341.6,1167.2c-2.5-2.2-4-3.1-6.2-4.8c1.1,5.9,1.7,10.9-2.2,11.1c5.5,4.5,10.2,7.9,12.3,7.6c1-0.1,1.3-1.1,0.8-3.3
	C345.7,1175.7,344.2,1172.2,341.6,1167.2z"/>
<path d="M179.2,1147.6c-2.2-2.9-5.2-6.4-10.6-11.5C174,1141.5,177.3,1145.2,179.2,1147.6z"/>
<path d="M245.8,990l0.3-0.1C241.5,985.5,242.4,986.3,245.8,990z"/>
<path d="M266.7,1219.5c3.5,2.2,6.5,3.8,8.9,4.6C273.5,1222.7,270.7,1221.2,266.7,1219.5z"/>
<path d="M278,1229.8c-1.6-0.5-2.6-0.6-3.6-0.8C278,1232.9,280.6,1235.1,278,1229.8z"/>
<path d="M280.6,1223.9c-0.5,1.3-2.5,1-5,0.2c1.9,1.2,3.3,2.4,4,3.2C279.7,1226.5,279.9,1225.4,280.6,1223.9z"/>
<path d="M645.2,395.5l-24.6-17.4c-22.1-43-6-34.7-37.7-61.5c15.6,19.7,22.2,31.3,24.3,38.8c2.1,7.5-0.2,11-2.6,14.5
	c-4.7,6.9-9.4,13.9,22,53.1l-17.7-13c1.8-0.2-1.7-4.9,0.1-5.1c-19.4-15.4-9.4-0.1,3,18.7c12.4,18.8,27.2,41,17.4,39.7
	c-8.6-3-20.5-12.2-25.6-23.4l7.6,25.7c-3.6,0.4-14.2-13.5-10.6-13.9c0,0-1.9,4-3.7,8.1c-1.8,4.1-3.7,8.2-3.7,8.2l-1.8-2.3
	c8.3,13.6,20,35.5,24.7,45c-12.4-8.5-5.3-9.4-14.2-18.4l8.8,24.2c-19.7-17.6-30.3-41.6-23-42.6c-35.6-35.8-33-29.7-27.9-19
	c2.5,5.4,5.7,11.9,4.9,15.1c-0.7,3.1-5.3,2.8-18.4-5.4l-1.7-15.1c-20.6-20-28.9-25-35.8-27.6c-7-2.6-12.6-2.8-28-13.1
	c7,6.3,25.4,20.2,43.1,35.7c17.7,15.5,34.6,32.7,39,45.3c-7-4-12.2-4.4-3.1,14.3c-23.4-27.1-21.6-17.1-25.3-11.5l-30.7-36.1
	c3.5,14.8,19.8,32.7,30.6,51.5c-9,1.5-34.5-25.1-56.3-47.1c-7.4,1.3,4,10.9,16.6,22.3c12.5,11.4,26.1,24.5,23.4,32.6
	c-10-3.4-13.2-0.3-12.7,7.3c0.5,7.7,4.7,19.8,9.5,34.4c-16.4-7.4-18.4-22.4-29.5-30.8l20.4,32.3c-1.8,0.4-9.2-8.6-13-13.1
	c5.7,14.4,31.4,35.4,33.8,50.5c8.4,10,8.5,12.2,4.6,10.6c-4-1.5-12-6.8-20.2-11.7c-16.3-9.8-33-18.2-16.7,7
	c-11.1-8.1-18.9-22.1-32-35c7.8,19.1,10.3,26.3,14.2,34.6c3.9,8.3,9.3,17.5,23,40.5c0,0-7.2-4-14.4-7.9c-7.2-3.9-14.5-7.9-14.5-7.9
	c15,10.4,28.1,24.8,39.6,40.4c11.6,15.6,21.7,32.4,30.8,47.5c13.8,10.7,25.8,20.1,31.8,24.3c0,0,2.1,6.7,4.3,13.4
	c2.2,6.7,4.3,13.3,4.3,13.3c-6.5-4.6-17-17.1-29.3-32.7c2.1,3.4,4.2,6.7,6.3,9.7c-15.4-9.5-32.9-30.7-49-52
	c7.6,5.6,15.7,11.8,23.7,17.9c-17.7-22.8-37.6-47.9-57.4-67.4c3.2,4.5,5.2,9,5.7,12.1c-4.8-6.2-9.3-11.6-12.8-14.7
	c-3.8-3.3,2.5,5.2,9.3,15.3l-39-35.9l14.1,15.6c0,0-9-2.9-17.9-5.8c-9-2.9-18-5.7-18-5.7c14.1,23.3,33.1,50.6,48.8,75.7
	c15.8,25.1,28.4,47.8,29.6,62c-24.5-30.4-44.7-44.9-77.4-77.2c19.4,15.1,18.3,8.9,14.3-1.3c-4-10.1-10.9-24.2-3.7-24.3
	c-7.5,0.1-22.2-16.1-26.6-22.5c0,0,4.5,11.1,9.1,22.1c4.6,11,9.2,22,9.2,22c-26.6-26.6-22.9-17-37.6-24.4
	c28,24.6,34.4,35.6,35.3,43.1c0.9,7.5-3.8,11.5,1.9,22c-18.4-16.9-35.6-35.7-24.8-38.1c-23.8-15.7-10.4,1.8,4,19.8
	c14.3,18.1,29.6,36.7,8.8,23.9c1.1-2,4.7-0.2-3.9-9.5c6.3,9.5,4,13.4-1.5,12.9c-5.6-0.5-14.5-5.5-21.4-13.9l1.2-1.9
	c-4.2,1.1-8.3,3.7-11.3,7.7c-3,3.9-4.9,9.1-4.9,15.5c0.1,6.4,2.1,14,7,22.7c4.9,8.7,12.6,18.6,23.9,29.5
	c-6.2-5.4-55.3-52.4-64.2-61.5c0,0,35.2,40.1,70.4,80.3c35.2,40.2,70.3,80.3,70.3,80.3c-19.4-19-54.4-48.7-86.5-77.2
	c-32.1-28.5-61.1-55.9-68.7-70.3c-7.9-2.9-17.4-6-7.7,11.7c7.2,3.7,61.8,48.8,63.4,54.3c-25.2-17.3-32.1-21.7-38.4-25.2
	c-6.3-3.5-11.9-6.1-34.2-20c5.4,2.8,23.1,19.2,38.8,35.2c15.7,16,29.3,31.5,26.5,32.5c-8.8-9.2-61.9-56.7-67.1-64
	c0,0,13.2,16.3,26.3,32.8c13,16.5,26.1,33,26.1,33c-8.7-12.6-51.3-48.8-70.2-63.1c6.4,5.2,4.3,6.7,1.1,8c-3.2,1.2-7.4,2-5.5,6
	l17.4,9.9c-9.2,0.4,9.6,22.9,28.7,46.7c9.6,11.9,19.3,23.9,25.8,33.5c6.4,9.6,9.6,16.7,6.2,18.4c-5.4-6.8-23.2-26.4-41.3-44.6
	c-18.1-18.2-36.3-35.2-42.2-36.8c13.8,16.3,47.3,55.4,78,95.2c15.4,19.9,30.1,40,41.6,57.2c11.4,17.3,19.6,31.8,22.2,40.5L396,983.5
	c0,0,2.4,7,4.8,14.1c2.4,7.1,4.6,14.3,4.6,14.3c-8-11.9-19.5-29.1-33.1-49.3c-12.6-18.8-26.5-39.2-40.4-59.2
	c-27.7-40-55.6-78.1-70.9-99.7c-16.6-11-20.7-20.1-23.9-14.2c-8.6-7.6-13.8-14.6-17-19.9c-3.1-5.3-4.1-8.9-3.9-9.9
	c0,0-1.3-0.1-3.2-0.2c-1.9-0.2-4.4-0.3-6.9-0.6c-2.5-0.3-4.9-0.6-6.8-0.8c-1.8-0.2-3.1-0.4-3.1-0.4c16.8,18.4,23.1,29.4,28.5,39.8
	c2.7,5.2,5.2,10.3,8.7,16c3.5,5.7,8,12.1,14.8,19.9c0,0-0.3-0.8-0.9-2.2c-0.6-1.4-1.3-3.3-2.3-5.7c-2-4.7-4.6-10.9-7.3-17
	c-2.7-6.1-5.5-12.2-7.7-16.8c-2.2-4.5-3.6-7.6-3.6-7.6c17,18.2,39.2,45.8,54.6,69.5c7.7,11.8,13.7,22.7,16.9,30.7
	c3.1,8,3.2,13.2-0.7,13.5c-7.7-6.5-21.4-23.9-34.7-41.2c-13.3-17.2-26.2-34.3-31.6-40.5c5,7,8.2,14.9,9,20.1
	c0.7,5.2-0.9,7.5-5.1,3.1c0,0-3.2-5.9-6.5-11.8c-3.3-5.9-6.6-11.8-6.6-11.8c-8.4-5.3,0.1,9,5.9,20.8c5.9,11.8,9,21-8.9,4.8
	c-1-0.2-4.5-3.1-8.7-7.1c-4.3-3.9-9.4-8.8-13.7-13c-8.8-8.3-14.8-13.7-5.9-1.9c38.3,42.2,147.7,179.7,170.8,215.7
	c-1.7-1.2-13.7-9.1-27.6-19.5c-13.9-10.4-29.8-23.1-39.7-33.2c-15.6-16.2-29.9-38.5-43.8-60.2c-13.9-21.7-27.4-42.8-40.6-56.7
	c8.1,10.9,16,25.9,18.3,30.9c-9.6-7.4-24.3-34.4-26.2-25.4c14.7,20.5,11.1,21.7,8.6,21.7c-2.6,0-4.2-1.2,14.3,14.3
	c1.5,7.8-1.6,6.8-5.7,4.7c-4.1-2.1-9.3-5.4-12-2.1c21.6,24.6,60,93.4,62.8,109.1c-7.3-10.5-18.6-23-23.8-28.6
	c-14.7,4.9-34.9-8.7-46.5-0.7c-8.4-8.9-23.1-16.5-34-35.4c3.8,8.3,12.8,22.9,10,26.6c-16.9-14.5-16-17.4-15.5-21.3
	c0.5-3.9,0.6-8.8-18.2-27.4c8.8,11.7,12.6,21.5,15.1,30.6c2.5,9.1,3.6,17.5,6.8,26.6c15,17,19.2,16.5,18.9,9.5
	c-0.3-7-5-20.7-8.1-29.8c19.2,24.7,36.5,51.5,50.3,76c6.9,12.2,12.8,23.8,17.5,34.3c4.7,10.4,8.3,19.7,10.4,27.3
	c0.9,9.1-6.3,2-13.4-6.4c-7-8.4-13.7-18.1-11.6-14.1c-5.6,1-4.9,7.4-1,15.9c3.8,8.6,10.7,19.3,16.9,29.1c6.3,9.8,12,18.6,13.6,23.5
	c1.6,4.9-0.9,5.7-11.3-0.2c-15.6-12.7-29.3-27.1-41.4-41c-12.1-13.9-22.8-27.2-33.1-37.3c-0.9-4.3,0.5-5.8,2.9-5.8
	c2.5,0,6.1,1.6,10,3.6c7.7,4,16.1,9.5,17.8,7c0,0-4.5-2.4-9-4.7c-4.5-2.3-9.1-4.6-9.1-4.6c-6.7-11.7-8.5-23.4,1.6-16.8
	c-13.9-11.7-22-7-30.9-1.2c-4.4,3-8.9,6.4-14.6,8.2c-5.7,1.8-12.5,2.1-21.4-0.7c7.2,11.6,13.5,24.8,26.7,34.4l-0.3-7.5
	c13,9.7,19.2,19.3,24.1,27.1c4.9,7.8,8.5,13.8,16,17c5.8,10.2,13.9,22.6,18.2,31.6c2.2,4.5,3.4,8.1,2.9,10.2
	c-0.5,2.1-2.7,2.7-7.4,1.2l-34.6-29.6c5,4.4,11,8,14.6,9c3.7,1.1,5-0.4,0.8-6c6.1,8.2-7.4,0.1-17.6-4.4c-10.1-4.6-16.8-5.5,4,15.8
	c0,0,6.9,4.2,13.9,8.3c6.9,4.2,13.7,8.4,13.7,8.4c6.4,9.9,17.4,24.1,25.1,35.1c7.7,11.1,12,19.1,4.3,17
	c18.2,13.4,17.4,12.3,17.5,11.7c0.1-0.6,1.2-0.9,22.5,14.7c-13-10-18.7-15.6-20.8-19.1c-1-1.8-1.2-3-0.9-3.9
	c0.3-0.9,1.1-1.6,1.8-2.2c1.4-1.3,2.7-2.6,0.2-6.2c-2.5-3.6-8.8-9.5-22.8-19.8c24.4,18.6,30.5,21.6,36,23.6
	c5.4,2.1,10.1,3.1,31.1,19.1c-11-10.2-22.3-18.3-13.2-16.9c-3-3.2-6.6-7.5-8.7-10c0.4,0.2,0.6,0.3,1.1,0.5c-0.5-0.3-1-0.7-1.5-1
	c-1.4-1.7-1.8-2.1-0.5-0.4c-5.6-3.7-12.1-8.4-18.4-13.9c-22.9-25.8-15.3-31.8-25.4-46.8c3.9,1.3,6.6,4.6,9.9,8.9
	c3.4,4.2,7.4,9.4,13.7,14.5c0,0-3.8-5.6-7.6-11.1c-3.8-5.6-7.5-11.2-7.5-11.2c11.8,11.8,23.1,20.2,32.3,28.1
	c9.2,7.9,16.4,15.4,20.5,25l5.9-3.4c7.9,5.5,13.9,8.7,17.2,9.1c3.3,0.4,3.8-2.1,0.3-8.4c3.6,1.7-1.1-6.4-4.7-12.4
	c-3.6-6-6.1-9.7,1.4,1c0,0-1.4-5.6-2.8-11.2c-0.7-2.8-1.2-5.6-1.7-7.8c-0.4-2.1-0.7-3.6-0.7-3.6l5.4,6.3c1.4-0.4,2.1-1.7,2.5-3.4
	c0.4-1.7,0.5-4,0.3-6.4c-0.1-2.5-0.4-5.2-0.6-7.8c-0.1-1.3-0.2-2.6-0.2-3.9c0-1.3,0-2.5,0.1-3.7c0.5-4.6,2-7.9,6.6-7.6
	c4.6,0.3,12,4.1,24,13.9c-0.8-4.6-1.9-9.6-1.2-13.1c0.3-1.7,1-3.1,2.4-3.8c1.4-0.7,3.5-0.8,6.4,0l18.4,22.1c-0.3-2.8,1.4-3.5,4-3.2
	c2.7,0.2,6.2,1.4,9.2,2.1c3,0.7,5.6,1,6.5-0.5c0.9-1.5,0-4.8-3.9-11.2c12.9,14.5,21.5,21.6,27.4,24c2.9,1.2,5.3,1.2,7.2,0.5
	c1.9-0.8,3.3-2.3,4.5-4.3c2.2-3.9,3.7-9.7,5.6-14.2c0.9-2.2,2-4.1,3.4-5.4c1.4-1.3,3.2-1.9,5.5-1.4l-22.4-30.1c4-1.6,6-5.7,7-11.8
	c1-6.1,0.8-13.9,0.4-23.2l-21.1-25.6c-4.8-13.5,3.4-12.2,14.3-9.5c5.4,1.4,11.5,3.3,16.9,3.9c5.4,0.6,10,0.1,12.5-3
	c7.4,10.3,2.2,10.3-4.9,6.2c15.7,11.4,23.4,12.9,26.8,9.1c3.4-3.8,2.4-12.7,0.7-21.9c-1.7-9.3-3.9-18.9-2.9-24.3
	c1.1-5.5,5.9-6.8,18.3,0.2c-5.4-11.5-0.4-10.5,7.6-6.6c-0.2,0.3-0.1,1,0.5,1.9c0.6,0,1.1-0.4,1.5-0.9c5.3,2.8,11.3,6.3,16.6,8.6
	c-7-4.5-12.8-8.1-16-9.3c1.8-2.7,2.3-8.9-0.3-17.9l26.8,23.7c-0.1-0.6,0.2-0.8,0-1.5c12.7,6-9.5-14.4-30.4-31.6
	c-2.6-5.7-6.2-12.1-11.2-19.2c22,18.9,20.5,13.4,19.5,8.2c-1-5.2-1.6-10.1,22.4,9.4c-9.9-11.4-10.1-19.2-13.6-29.6
	c-3.5-10.4-10.2-23.6-32.7-45.7c6.1,5.5,9.9,7.3,8.7,9.2c8.4,1.6,16.9,3.1,6.5-11.8l34.9,29.2c0,0-9.6-12.1-19.2-24.2
	c-9.7-12-19.3-24.1-19.3-24.1c24.5,14.3,38.2,23.3,60.1,51.1c-15-23.3-16.9-28.7-18.9-33.9c-2-5.2-4.1-10.2-19.9-32.4l21.4,20.1
	c2-3.8-22.6-35-2.9-20.5c11.9,7.7,20.2,9.9,26.7,9.1c3.3-0.4,6-1.5,8.6-3c2.6-1.5,5-3.5,7.5-5.5c4.9-4,10.1-8.4,17.3-10.6
	c3.6-1.1,7.7-1.6,12.6-1.2c4.9,0.4,10.6,1.8,17.3,4.3c-32.6-28.6-23.7-23.7-12.7-17.5c11,6.2,24.2,13.7,0.6-10.2
	c15.5,13.4,25.9,19.4,36,34.4c-3.1-11,5.6-8.3,10.9-8.4c5.3-0.1,7-3.1-10-25.9c15.4,13.7,19.3,23,28.7,30.8
	c-2.5-3.8-9.9-15.1-0.5-7.2c9.4,7.9,10.9,13.4,15.8,20.9c5.8-10.2-37.3-56.2-78-99.2c12,7.9,17.8,10.7,17.7,7.6
	c-0.1-3.1-6.1-12-17.9-27.5c15,12.5,31.6,24.7,30.9,34.8c2.5-0.4,12.1,0.4,17-3c4.9-3.4,5.1-11-10.9-28.5c9.2,7.9,6.8-1.4,3.9-6.1
	c9-4.3,12.5-1.7,16.5-11.2l-7.2-4c-18-22.3-18.6-25.9-14.7-25.3c3.9,0.6,12.5,5.7,13,0.6l3.8,4.5c20.4,9.6,18.5,4.7,17.1,0.3
	c-1.4-4.3-2.3-8.2,19.8,3.8l-24.4-25.9c-24.9-29-14.4-23.2,0.8-13.5c15.2,9.7,34.9,23.2,29.1,9L678,689.8
	c-6.5-11.6,13.6,5.4,36.5,25.9c22.9,20.5,48.6,44.5,53.8,46.4c5.3,4.3,5.6,9.2,7.5,14c40.2,25.2-29.1-36.3-28-51.2
	c17.9,17.8,39.8,49.9,48.2,49c8,6.6-1.4-12.1-7.9-28.7c-6.5-16.6-9.8-31.1,9.4-15.7c-14.1-13.5-28.3-26.8-33.8-41.1
	c0.7-5,16.5,5.7,27.8,11.4c11.3,5.7,18.2,6.3,1.4-19.3c4.1,3.5,7.7,7.1,10.8,10.8c-5.5-15.7-1.9-31.9-20.1-59.7
	c41.1,45.7,38.7,28.6,35.2,10.9c-3.5-17.7-8.3-35.9,27.2,8.1l10.5-15.8l6.9,9.3c13.8-1.2,0-24.9-13.6-48.6
	c6.9,4.4,12,13.8,15.5,18.6c27.7,7.5,26,2.8,2.3-50.1l24,27.8c-5.1-9.5,8.8-2,22.2,2.5c13.4,4.5,26.5,5.9,19.9-16
	c2.4,3.4,6.6,9.2,8.7,14c-5.8-22.6,19-9.4,35.5-4.3c16.6,5.2,25,2.3-13.5-52.3l-10.3-33.5c-19.4,1.6-33.9-47.1-52.9-60.5
	c0.3-10,38.1,21.7,36,31.9l-5.1-4.5c40.7,56.5,31.4,7.2,60.3,44.8c11.7-11,29.9-13.7,48.3-15.6c18.5-2,37.2-3.2,50.3-11.4
	l-36.5-40.2l10.3-4c10.1,8.2,29.4,30.8,22,33.7c22.3,21.6-5.9-27.8-13.1-37.1c25.5,8.1,34.9,52.8,39.3,51.1l2.4-6.9l-5.1-4.1
	c-9.8-20.3-24.2-38.9-15.3-42.4c11.4,4.9,23.3,24.2,26.4,24.4c2.4,3,4.1,3.9,3.8-0.9l13.6-4.7l-31.2-29.9c-8.6-20,11.4-6-24-39.8
	c27.1,26.2,41.2,23.7,50.9,16.4c4.9-3.6,8.6-8.5,12.3-11.5c3.7-3,7.4-4.3,12.2-0.7c-13.3-29.2-6.6-33.9,3.8-37.5
	c-7.7-5.2-39.8-41.1-29.2-42.1c30.7,39,40.8,44.7,49.7,46.8c8.9,2.2,16.5,0.9,42.5,25.7c-35.7-31.9,12.1-25.2-39.6-69.7
	c10.9,1.4,24.6,27.9,44.2,41.9c-2.9-10.1-1.4-15.5,2.6-18.4c3.9-2.9,10.4-3.2,17.5-3c14.1,0.4,31,2.7,35.1-9.5
	c-8.5-9.9-24.6-22.3-34-39.8c0,0,13.1,10.2,26.2,20.4c13.2,10.1,26.3,20.3,26.3,20.3c-0.9-7.7-47.6-58.3-11.1-30.1
	c-8.3-7.3-20.7-18.5-21.3-23.4c18.8,4.5,30.2,0.6,38.4-6.8c8.2-7.5,13.1-18.6,19.2-28.3c1.5-2.4,3.1-4.8,4.9-7
	c1.7-2.2,3.6-4.3,5.7-6.2c4.2-3.7,9.2-6.6,15.8-8c13.1-2.7,31.8,0,61.4,12.8c-22.5-13.3-21.4-18-18.7-21.9
	c-6.5-2.1-23.1-22.5-36.2-34.4c0,0,12.1,5.3,24.3,10.6c6.1,2.6,12.2,5.2,16.8,7.1c4.6,1.9,7.6,3.2,7.6,3.2
	c-16.6-18.2-13.7-22.3-10.7-26.1c3-3.8,6-7.4-10.5-24l2.1,10c-17.5-21.7-42-40.7-68.2-60.7c-26.3-20-54.3-40.9-79.8-65.7
	c10.1,12.2,9.9,15.3,5,14.1c-4.9-1.2-14.7-6.7-23.9-11.6c-18.5-9.7-34.7-16.9-7.1,19.1c-12.4-8.2-14.6-17.7-27.5-28.2
	c19.5,23.6,21.2,30.9,6.2,26.3l-4.7-5.9c-4.8,9.7-14.1,10.7-25.9,9.4c-3-0.3-6.1-0.8-9.3-1.3c-3.3-0.5-6.7-1.1-10.2-1.6
	c-7-1-14.4-1.8-22-1.6l25.5,24.3c-6.9-0.1-15.2-7.3-23-12.2c32.5,42.5,12.2-7.2,49,38.8c-13.6-11.8-22-16.3-27.9-17.2
	c-3-0.5-5.3-0.1-7.4,0.7c-2.1,0.8-3.9,2-5.7,3.1c-7.3,4.6-15.3,8.1-44.5-20.3c-5.9,4.7,29.2,28.4,23.2,33.1L1097,80.7l17.7,22.1
	c-7-0.1-27.3-18.8-40-32.5c2.4,0.8-0.9-6.1-1.1-8.1c-11.1-7.5-13-2.9-13.1,2.9c0,5.9,1.7,13-1.9,10.6l14.5,5.3
	c-0.4,7.2-3.2,12.3-6.8,16.6c-3.7,4.3-8.3,7.8-12.3,11.9c-4.1,4.1-7.6,8.7-9.3,15.2c-1.7,6.5-1.6,14.9,1.8,26.6l12,11.6
	c4,16.6-1.5,15.2-8.3,12.3c-6.8-2.9-15.2-7.3-17.3,3.6l-2.1-3.4c8,14.8,9.7,24,4.8,25.6c-9.1-17.6-30.6-23.7-39.9-43.7
	c4,17.9,6.5,24.2,11.8,32.8c5.3,8.6,13.6,19.4,28.8,46.6l-19.6-19.5c12.8,21.5,20.9,31.8,18.6,42.8c-9.4-22.7-31-28.8-44.6-57.8
	c-26.2-17.5-21.8-1.7-18.8,10.8c3.1,12.5,4.8,21.5-26.2-10c41.3,64.2,39.1,23,45.7,38.5c18.8,16.8,30.4,48.3,21,46
	c-5.7,2.4-69.1-69.3-79.8-59.3c1.4-0.6-2.1-5.2-0.8-5.8c-16.5-11.7,7.9,27-17.1,6.6c25.7,38.2-8.6,3.3,27.1,49.7l2.3-18.9
	c3.6,16.6,40.5,74.6,9.7,56.4c-6.6-9.9-13.3-24.3-16.6-32.7c-13.7-11.2,1.5,13.3-12.7,1.8c-35.7-46.6,5.2-20-16.3-59.9
	c-18.6-16.9,14.2,42.6-22.2-9.5c22.8,33.4,18.4,33.6,12,32.2c-6.4-1.3-14.6-4.3,0.6,22.9l-21.3-27.9c2.2,5.3,9.9,20.3,7,21.3
	l-24.1-38.9c17.7,35.4-33.5-17.2-26.6,4.1c12.3-10.7,29.1,31,50.5,46.9c13.1,49.1-66.1-65.1-73.7-38.3c-0.6-5.7,22.2,9.6,28.5,25.3
	c-7.9-3.1-20.8-10.2-34.3-23.1c-7.4,14.8,24.2,27,32.4,47.8c-30.5-30.6,4.9,18.1,8.1,32.9l-22.1-28.1c-27.9-7.7,42.3,61.3,12.9,48.8
	l-25.3-42.9l1.5,14.9l-23.8-33c11.6,29,4.6,24.5-9.3,20.8c17.1,18.6,39.1,51.7,33.7,57.1c-17.3-13.5-18.6-28.5-24.1-17.9
	c-11.8-19-27-42.7-2.9-19.7c-6.8-9.4-11.9-19.1-18.6-28.4c-19.6-15.8-14.7,4.1-17.7,6.8c2,0.1,4.7,0.6,8.6,4l18,48.4
	c-10.3-9-15.4-18.7-20.3-28.2c-0.2,5,8.2,19.2,6.3,24.5c-17-23.5-35.7-46.9-38.8-61.7l7.9,34.4c-8.6-9.3-27.6-22.5-32.7-32.1
	c-8.6-4.2-4.1,10-0.1,23.9c3.9,13.9,7.1,27.4-4.3,21.9c3,4.8,5.5,9.7,6.1,14.4c-12.4,1.2-42.1-20.9-27.2,17.8l-38.2-36.3
	c-0.2,7.7,11.9,19,24.1,31.5c12.1,12.6,24.2,26.4,23.9,39.1c1.2,20-31.2-32-43.5-40.8c5.9,12,15.3,29.9,18.8,41.6
	c3.5,11.6,1.2,16.9-16.4,3.8C637.9,396.2,645,400.5,645.2,395.5z M563.8,489.9c-3-7.2-14.3-27.9,0.7-13
	C588.9,509.8,574.6,496.2,563.8,489.9z M480.7,677c-7-9.7-0.9-7.4,10.8,0.2C491.9,680.9,489.1,681.7,480.7,677z M277.7,1189.3
	c-0.3-0.5-0.6-0.8-1-1.4c6.2,3.9,8,5.1,7.6,4.8C283.7,1192.5,280.9,1190.8,277.7,1189.3z M261.1,1183.4c2.8,4.2,6.3,7.7,10,11.1
	c-5.8-6.9-4.9-8.6-1.6-8.2C262.7,1179.9,257.4,1175.9,261.1,1183.4z M1114.2,450.6l-7.5-6C1104,433.7,1108.8,441.7,1114.2,450.6z"/>
<path d="M275.5,1254.6c0,0-0.9-2.4-1.8-4.8c-0.9-2.4-1.8-4.9-1.8-4.9c-0.3,2.9-6.6-1.8-11.7-4.7
	C266.5,1245.7,276.1,1253.2,275.5,1254.6z"/>
<path d="M72,1151.3c2.9,3.4-0.9,2,2.1,5.4l13.5,9.8C89.1,1162.6,80.3,1152.2,72,1151.3z"/>
<path d="M183.2,1179c-23-19.6-17.8-10-16.3-3.2c0.1-0.3,0-0.6,0.5-0.6c15.6,14.2,21.5,18.2,22.5,17.2
	C190.8,1191.4,186.9,1185.2,183.2,1179z"/>
<path d="M167,1177.2c0.2,1.9,0,3.4-2,3.4C177.6,1191.9,168.7,1181.7,167,1177.2z"/>
<path d="M267.5,1204.6c-6.7-4.3,26.4,28.1,17.1,20c12.9,14.2,6.5,4.1-1.8-6.9C274.3,1206.5,263.8,1194.3,267.5,1204.6z"/>
<path d="M106.1,1116.2l29.1,23.2c0,0-5.2-5.4-10.4-10.8c-5.2-5.4-10.4-10.9-10.4-10.9s-2.1-0.4-4.2-0.8
	C108.2,1116.6,106.1,1116.2,106.1,1116.2z"/>
<path d="M151.6,1108.2c0,0-3.2-0.5-6.3-1c-3.2-0.5-6.4-1-6.4-1c4.6,4.2,6.6,7.4,7.8,10.1C150.9,1114,159.7,1115.7,151.6,1108.2z"/>
<path d="M146.8,1116.3c-2.1,1.2-3.1,3.4,0.5,8.4C147.8,1123.6,148.8,1120.8,146.8,1116.3z"/>
<path d="M104.8,1101.2l7.3,3.5l5.7-2.1c0,0-3.2-0.4-6.5-0.8C108.1,1101.5,104.8,1101.2,104.8,1101.2z"/>
<path d="M215,1061.8c0,0-0.1-3.3-0.2-6.6c-0.1-3.3-0.2-6.6-0.2-6.6c-7.3-10.4-13.9-15.1-13.2-9.3
	C205.5,1047.4,206.2,1053,215,1061.8z"/>
<path d="M129.5,1000.4c6.9,4.2,12.5,10.4,21.5,18.7l-29.9-35c0,0,2.1,4.1,4.2,8.1C127.4,996.4,129.5,1000.4,129.5,1000.4z"/>
<polygon points="281.5,946 280.1,947.7 326.2,1007.4 "/>
</svg>
