<?xml version="1.0" encoding="utf-8"?>
<!-- Generator: Adobe Illustrator 18.1.1, SVG Export Plug-In . SVG Version: 6.00 Build 0)  -->
<svg version="1.1" id="Layer_1" xmlns="http://www.w3.org/2000/svg" xmlns:xlink="http://www.w3.org/1999/xlink" x="0px" y="0px"
	 viewBox="-164 42.3 512 512" enable-background="new -164 42.3 512 512" xml:space="preserve">
<g>
	<path d="M179.7,473.1h32c17.6,0,31.9-14.3,31.9-31.8V153.9L147.8,42.2H-27.7c-17.7,0-32,14.3-32,32v366.8c0,17.7,14.2,32,31.9,32
		H99.9v79.8l39.9-39.9l39.9,39.9V473.1z"/>
	<path fill="#FFFFFF" d="M179.7,440.4v16.8h31.9c8.8,0,16-7.1,16-15.9V169.9h-63.9c-17.6,0-31.9-14.1-31.9-32V58.2H-27.8
		c-8.8,0-15.9,7.3-15.9,15.9v367.2c0,8.8,7.3,15.9,16,15.9H99.9v-16.8c-9.9-10.1-16-23.9-16-39.1c0-30.8,25-55.9,55.9-55.9
		s55.9,25,55.9,55.9C195.7,416.5,189.6,430.3,179.7,440.4z"/>
	<path d="M115.9,451.8v62.8l23.9-23.9l23.9,23.9v-62.8c-7.3,3.4-15.4,5.4-23.9,5.4S123.2,455.2,115.9,451.8z"/>
	<path d="M147.8,66.2v71.7c0,8.9,7.2,16.1,15.9,16.1h59.1L147.8,66.2z"/>
	<rect x="-11.8" y="153.9" width="111.7" height="16"/>
	<rect x="-11.8" y="106.1" width="111.7" height="16"/>
	<rect x="-11.8" y="201.8" width="207.5" height="16"/>
	<rect x="-11.8" y="249.7" width="207.5" height="16"/>
	<rect x="-11.8" y="297.6" width="207.5" height="16"/>
	<circle fill="#FFFFFF" cx="139.8" cy="401.3" r="39.9"/>
</g>
</svg>
