<?xml version="1.0" encoding="utf-8"?>
<!-- Generator: Adobe Illustrator 18.1.1, SVG Export Plug-In . SVG Version: 6.00 Build 0)  -->
<svg version="1.1" id="Layer_1" xmlns="http://www.w3.org/2000/svg" xmlns:xlink="http://www.w3.org/1999/xlink" x="0px" y="0px"
	 viewBox="-164 42.3 512 512" enable-background="new -164 42.3 512 512" xml:space="preserve">
<g>
	<path d="M-165,449.7h311.6v104.7l64.5-38.6l64.5,38.6V449.7h75.2V42.3H-165V449.7z M257,377c-1,1-2,1.9-3,2.8
		c-0.6,0.5-1.1,1.1-1.7,1.6c-0.7,0.6-1.4,1-2.1,1.6c-9.1,6.9-20,11.5-31.9,12.8c-0.2,0-0.4,0.1-0.6,0.1c-2.2,0.2-4.4,0.3-6.6,0.3
		s-4.4-0.1-6.6-0.3c-0.2,0-0.4-0.1-0.6-0.1c-11.9-1.3-22.8-5.9-31.9-12.8c-0.7-0.5-1.4-1-2.1-1.6c-0.6-0.5-1.1-1-1.7-1.6
		c-1-0.9-2-1.8-3-2.8c-11.5-11.6-18.6-27.6-18.6-45.2c0-35.5,28.9-64.3,64.5-64.3s64.5,28.9,64.5,64.3
		C275.6,349.4,268.5,365.3,257,377z M254.1,516.6l-43-25.7l-43,25.7v-66.8v-43.6c0.4,0.2,0.8,0.4,1.1,0.6c2.8,1.6,5.8,3,8.8,4.3
		c0.1,0.1,0.3,0.1,0.4,0.2c10.1,4.1,21.1,6.5,32.6,6.5c11.6,0,22.6-2.3,32.6-6.5c0.1-0.1,0.3-0.1,0.4-0.2c3-1.3,6-2.7,8.8-4.3
		c0.4-0.2,0.8-0.3,1.1-0.6v43.6L254.1,516.6L254.1,516.6z M-143.5,63.7h472.8v364.6h-53.7v-40c13.3-15.1,21.5-34.9,21.5-56.5
		c0-47.3-38.6-85.8-86-85.8s-86,38.5-86,85.8c0,21.7,8.2,41.4,21.5,56.5v40h-290.1V63.7z"/>
	<rect x="-46.7" y="106.6" width="279.4" height="21.4"/>
	<rect x="7" y="170.9" width="171.9" height="21.4"/>
	<rect x="-100.5" y="364" width="118.2" height="21.4"/>
</g>
</svg>
