<?xml version="1.0" encoding="utf-8"?>
<!-- Generator: Adobe Illustrator 18.1.1, SVG Export Plug-In . SVG Version: 6.00 Build 0)  -->
<svg version="1.1" id="Layer_1" xmlns="http://www.w3.org/2000/svg" xmlns:xlink="http://www.w3.org/1999/xlink" x="0px" y="0px"
	 viewBox="-164 42.3 512 512" enable-background="new -164 42.3 512 512" xml:space="preserve">
<g>
	<path d="M28.4,371.4v43.8h277.8c11.8,0,21.4-9.6,21.4-21.5V116.2c0-11.9-9.4-21.5-21.4-21.5h-427.4c-11.8,0-21.4,9.6-21.4,21.5
		v277.5c0,11.9,9.4,21.5,21.4,21.5h42.7v-43.8c-13.2-13.5-21.4-32-21.4-52.4c0-41.3,33.5-74.8,74.8-74.8c41.3,0,74.8,33.5,74.8,74.8
		C49.7,339.5,41.6,357.9,28.4,371.4z M-57.1,386.7v84.1l32.1-32.1L7,470.8v-84.1c-9.7,4.6-20.6,7.2-32.1,7.2S-47.4,391.3-57.1,386.7
		z M-78.5,436.6h-42.6c-23.7,0-42.9-19.1-42.9-42.7V116c0-23.7,19.2-42.7,42.9-42.7h427.3c23.7,0,42.9,19.1,42.9,42.7v277.8
		c0,23.7-19.2,42.7-42.9,42.7H28.4v85.5l-53.4-53.4l-53.4,53.4V436.6z M-99.9,180.1v21.4h384.7v-21.4H-99.9z M92.5,244.3v21.4h192.4
		v-21.4H92.5z M156.6,308.4v21.4h128.2v-21.4H156.6z M-25.1,372.5c29.5,0,53.4-23.9,53.4-53.4c0-29.5-23.9-53.4-53.4-53.4
		c-29.5,0-53.4,23.9-53.4,53.4C-78.5,348.6-54.6,372.5-25.1,372.5z"/>
</g>
</svg>
