<?xml version="1.0" encoding="UTF-8" standalone="no"?>
<svg
   xmlns:dc="http://purl.org/dc/elements/1.1/"
   xmlns:cc="http://creativecommons.org/ns#"
   xmlns:rdf="http://www.w3.org/1999/02/22-rdf-syntax-ns#"
   xmlns:svg="http://www.w3.org/2000/svg"
   xmlns="http://www.w3.org/2000/svg"
   xmlns:sodipodi="http://sodipodi.sourceforge.net/DTD/sodipodi-0.dtd"
   xmlns:inkscape="http://www.inkscape.org/namespaces/inkscape"
   style="enable-background:new 0 0 500 500;"
   version="1.1"
   viewBox="0 0 500 500"
   xml:space="preserve"
   id="svg4558"
   sodipodi:docname="shield-close.svg"
   inkscape:version="0.92.3 (2405546, 2018-03-11)"><metadata
     id="metadata4564"><rdf:RDF><cc:Work
         rdf:about=""><dc:format>image/svg+xml</dc:format><dc:type
           rdf:resource="http://purl.org/dc/dcmitype/StillImage" /><dc:title></dc:title></cc:Work></rdf:RDF></metadata><defs
     id="defs4562" /><sodipodi:namedview
     pagecolor="#ffffff"
     bordercolor="#666666"
     borderopacity="1"
     objecttolerance="10"
     gridtolerance="10"
     guidetolerance="10"
     inkscape:pageopacity="0"
     inkscape:pageshadow="2"
     inkscape:window-width="1920"
     inkscape:window-height="1027"
     id="namedview4560"
     showgrid="false"
     inkscape:zoom="0.10625"
     inkscape:cx="775.01359"
     inkscape:cy="1840.8348"
     inkscape:window-x="1912"
     inkscape:window-y="-8"
     inkscape:window-maximized="1"
     inkscape:current-layer="globe-safety-shield" /><g
     id="globe-safety-shield"><path
       inkscape:connector-curvature="0"
       id="path4546"
       style="fill:#000000;stroke-width:4.78612614"
       d="m 640.02931,-118.00403 h 0.10529 L 320.28259,-240.11246 0.34921156,-118.00403 C -0.02889239,-38.544765 -3.0776547,132.1572 47.69357,241.99401 95.119292,344.66598 182.86334,451.67419 320.2778,501.32546 457.53433,451.67419 545.3023,344.67077 592.74238,241.99401 643.50404,132.1572 640.39306,-38.544765 640.02931,-118.00403 Z m -66.8909,49.230093 C 569.94128,20.606966 566.95474,138.07764 532.13567,213.48306 491.03242,302.44757 419.52291,389.01901 320.2778,431.08428 220.79818,389.01901 149.3126,302.44757 108.28593,213.48306 73.414211,138.07764 70.528177,20.606966 67.206606,-68.773937 L 321.00051,-166.4827 574.77527,-68.773937 Z" /><path
       id="path5206"
       d="m 440.95308,202.51175 -79.40432,-79.40431 79.40432,-79.404305 c 8.57277,-8.572749 8.57277,-22.374267 0,-30.947009 -8.57278,-8.5727492 -22.37425,-8.5727492 -30.94703,0 L 330.60174,92.160434 251.19742,12.756126 c -8.57269,-8.5727492 -22.37425,-8.5727492 -30.94702,0 -8.5727,8.572742 -8.5727,22.37426 0,30.947009 l 79.40431,79.404305 -79.40431,79.40431 c -8.5727,8.57275 -8.5727,22.37429 0,30.94698 8.57277,8.57277 22.37433,8.57277 30.94702,0 l 79.40432,-79.40428 79.40431,79.40428 c 8.57278,8.57277 22.37425,8.57277 30.94703,0 8.51197,-8.57269 8.51197,-22.43503 0,-30.94698 z"
       inkscape:connector-curvature="0"
       style="stroke-width:0.60799628" /></g><g
     id="Layer_1" /></svg>