<?xml version="1.0" encoding="UTF-8" standalone="no"?>
<svg
   xmlns:dc="http://purl.org/dc/elements/1.1/"
   xmlns:cc="http://creativecommons.org/ns#"
   xmlns:rdf="http://www.w3.org/1999/02/22-rdf-syntax-ns#"
   xmlns:svg="http://www.w3.org/2000/svg"
   xmlns="http://www.w3.org/2000/svg"
   xmlns:sodipodi="http://sodipodi.sourceforge.net/DTD/sodipodi-0.dtd"
   xmlns:inkscape="http://www.inkscape.org/namespaces/inkscape"
   style="enable-background:new 0 0 500 500;"
   version="1.1"
   viewBox="0 0 500 500"
   xml:space="preserve"
   id="svg4558"
   sodipodi:docname="shield-cross.svg"
   inkscape:version="0.92.3 (2405546, 2018-03-11)"><metadata
     id="metadata4564"><rdf:RDF><cc:Work
         rdf:about=""><dc:format>image/svg+xml</dc:format><dc:type
           rdf:resource="http://purl.org/dc/dcmitype/StillImage" /><dc:title></dc:title></cc:Work></rdf:RDF></metadata><defs
     id="defs4562" /><sodipodi:namedview
     pagecolor="#ffffff"
     bordercolor="#666666"
     borderopacity="1"
     objecttolerance="10"
     gridtolerance="10"
     guidetolerance="10"
     inkscape:pageopacity="0"
     inkscape:pageshadow="2"
     inkscape:window-width="1920"
     inkscape:window-height="1027"
     id="namedview4560"
     showgrid="false"
     inkscape:zoom="0.2125"
     inkscape:cx="1118.7897"
     inkscape:cy="-355.57152"
     inkscape:window-x="1912"
     inkscape:window-y="-8"
     inkscape:window-maximized="1"
     inkscape:current-layer="globe-safety-shield" /><g
     id="globe-safety-shield"><g
       style="fill:#000000"
       id="g4552"
       transform="matrix(4.786126,0,0,4.786126,-1167.7527,-1422.97)"><path
         d="m 377.713,272.656 h 0.022 l -66.829,-25.513 -66.846,25.513 c -0.079,16.602 -0.716,52.268 9.892,75.217 9.909,21.452 28.242,43.81 56.953,54.184 28.678,-10.374 47.016,-32.731 56.928,-54.184 10.606,-22.949 9.956,-58.615 9.88,-75.217 z m -13.976,10.286 c -0.668,18.675 -1.292,43.219 -8.567,58.974 -8.588,18.588 -23.529,36.676 -44.265,45.465 -20.785,-8.789 -35.721,-26.877 -44.293,-45.465 -7.286,-15.755 -7.889,-40.299 -8.583,-58.974 l 53.027,-20.415 53.023,20.415 z"
         style="fill:#000000"
         id="path4546"
         inkscape:connector-curvature="0" /><path
         d="m 275.607,338.2 c 0.581,1.253 1.227,2.501 1.889,3.737 l 70.215,-53.385 -36.621,-14.139 -42.578,16.449 c 0.618,13.5 0.998,34.16 7.095,47.338 z"
         style="fill:#000000"
         id="path4548"
         inkscape:connector-curvature="0" /><path
         d="m 310.905,375.293 c 16.481,-7.384 28.423,-22.244 35.292,-37.093 4.79,-10.417 6.027,-25.424 6.646,-37.95 l -68.739,52.354 c 6.814,9.408 15.744,17.751 26.801,22.689 z"
         style="fill:#000000"
         id="path4550"
         inkscape:connector-curvature="0" /></g></g><g
     id="Layer_1" /></svg>