<?xml version="1.0" encoding="UTF-8" standalone="no"?>
<svg
   xmlns:dc="http://purl.org/dc/elements/1.1/"
   xmlns:cc="http://creativecommons.org/ns#"
   xmlns:rdf="http://www.w3.org/1999/02/22-rdf-syntax-ns#"
   xmlns:svg="http://www.w3.org/2000/svg"
   xmlns="http://www.w3.org/2000/svg"
   xmlns:sodipodi="http://sodipodi.sourceforge.net/DTD/sodipodi-0.dtd"
   xmlns:inkscape="http://www.inkscape.org/namespaces/inkscape"
   style="enable-background:new 0 0 500 500;"
   version="1.1"
   viewBox="0 0 500 500"
   xml:space="preserve"
   id="svg4558"
   sodipodi:docname="shield-check.svg"
   inkscape:version="0.92.3 (2405546, 2018-03-11)"><metadata
     id="metadata4564"><rdf:RDF><cc:Work
         rdf:about=""><dc:format>image/svg+xml</dc:format><dc:type
           rdf:resource="http://purl.org/dc/dcmitype/StillImage" /><dc:title></dc:title></cc:Work></rdf:RDF></metadata><defs
     id="defs4562" /><sodipodi:namedview
     pagecolor="#ffffff"
     bordercolor="#666666"
     borderopacity="1"
     objecttolerance="10"
     gridtolerance="10"
     guidetolerance="10"
     inkscape:pageopacity="0"
     inkscape:pageshadow="2"
     inkscape:window-width="1920"
     inkscape:window-height="1027"
     id="namedview4560"
     showgrid="false"
     inkscape:zoom="0.2125"
     inkscape:cx="1965.8486"
     inkscape:cy="204.42848"
     inkscape:window-x="1912"
     inkscape:window-y="-8"
     inkscape:window-maximized="1"
     inkscape:current-layer="globe-safety-shield" /><g
     id="globe-safety-shield"><path
       inkscape:connector-curvature="0"
       id="path4546"
       style="fill:#000000;stroke-width:4.78612614"
       d="m 640.02931,-118.00403 h 0.10529 L 320.28259,-240.11246 0.34921156,-118.00403 C -0.02889239,-38.544765 -3.0776547,132.1572 47.69357,241.99401 95.119292,344.66598 182.86334,451.67419 320.2778,501.32546 457.53433,451.67419 545.3023,344.67077 592.74238,241.99401 643.50404,132.1572 640.39306,-38.544765 640.02931,-118.00403 Z m -66.8909,49.230093 C 569.94128,20.606966 566.95474,138.07764 532.13567,213.48306 491.03242,302.44757 419.52291,389.01901 320.2778,431.08428 220.79818,389.01901 149.3126,302.44757 108.28593,213.48306 73.414211,138.07764 70.528177,20.606966 67.206606,-68.773937 L 321.00051,-166.4827 574.77527,-68.773937 Z" /><path
       id="path5186"
       d="M 464.96313,-1.7628573 C 452.75044,-11.222402 435.66678,-8.3280641 426.77199,4.6611621 L 299.77406,190.46358 229.81578,114.71662 c -10.30666,-11.71854 -27.6021,-12.28329 -38.61471,-1.27068 -11.0126,10.94201 -11.57735,29.36694 -1.20009,41.01489 0,0 84.99472,94.31308 97.20742,103.77262 12.21269,9.45955 29.29635,6.56521 38.19115,-6.42402 L 471.03419,38.828475 c 8.89479,-13.05982 6.14164,-31.2023808 -6.07106,-40.5913323 z"
       inkscape:connector-curvature="0"
       style="stroke-width:0.70593619" /></g><g
     id="Layer_1" /></svg>